# xmcd
#
# Track frame offsets: 
#        150
#        19875
#        37357
#        50156
#        67391
#        85388
#        101892
#        116921
#        132299
#        146128
#        162477
#        177248
#        196875
#        212804
#        229697
#        245758
#        266338
#        284920
#        302884
#        314340
#
# Disc length: 4475 seconds
#
# Revision: 0
# Processed by: cddbd v1.5.2PL0 Copyright (c) Steve Scherf et al.
# Submitted via: ExactAudioCopy v1.1
#
DISCID=4e117914
DTITLE=Various Artist - JOE Top 2000 Volume 11 - CD 4
DYEAR=2019
DGENRE=Top 40
TTITLE0=Robbie Williams - Feel
TTITLE1=Sting - Russians
TTITLE2=The Beach Boys - God Only Knows
TTITLE3=Luis Fonsi - Despacito
TTITLE4=Jennifer Lopez - Let's Get Loud
TTITLE5=Lou Bega - Mambo No. 5 (A Little Bit Of...)
TTITLE6=Nik Kershaw - I Won't Let The Sun Go Down On Me
TTITLE7=Maroon 5 - This Love
TTITLE8=Tom Jones - Green Green Grass Of Home
TTITLE9=Charles and Eddie - Would I Lie To You?
TTITLE10=Wild Cherry - Play That Funky Music
TTITLE11=Lady Gaga - Bad Romance
TTITLE12=Backstreet Boys - I Want It That Way
TTITLE13=Bill Withers - Lovely Day
TTITLE14=Incognito Feat. Jocelyn Brown - Always There
TTITLE15=Terence Trent D'Arby - Sign Your Name
TTITLE16=Kenny Rogers and Dolly Parton - Islands In The Stream
TTITLE17=Dido - White Flag
TTITLE18=Charles Aznavour - She
TTITLE19=Patrick Bruel - Casser La Voix (Live)
EXTD=
EXTT0=
EXTT1=
EXTT2=
EXTT3=
EXTT4=
EXTT5=
EXTT6=
EXTT7=
EXTT8=
EXTT9=
EXTT10=
EXTT11=
EXTT12=
EXTT13=
EXTT14=
EXTT15=
EXTT16=
EXTT17=
EXTT18=
EXTT19=
PLAYORDER=
